<svg width="19" height="36" viewBox="0 0 19 36" fill="none" xmlns="http://www.w3.org/2000/svg">
<path d="M15.5781 35.2501L15.5743 35.2501C15.2382 35.2512 14.9061 35.177 14.6024 35.033C14.2988 34.889 14.0313 34.6788 13.8195 34.4178C13.8195 34.4178 13.8194 34.4177 13.8193 34.4176L1.74492 19.4183L1.74329 19.4163C1.41236 19.0137 1.23145 18.5087 1.23145 17.9876C1.23145 17.4667 1.41216 16.962 1.74273 16.5595C1.74292 16.5593 1.74311 16.5591 1.74329 16.5588L14.2422 1.56013L14.2424 1.55988C14.6244 1.10033 15.1733 0.811333 15.7683 0.756471C16.3633 0.701609 16.9558 0.885374 17.4154 1.26734C17.8749 1.6493 18.1639 2.19818 18.2188 2.79322C18.2736 3.3882 18.0899 3.9806 17.708 4.44013C17.708 4.44018 17.708 4.44023 17.7079 4.44028L6.53317 17.84L6.40189 17.9974L6.53052 18.157L17.3305 31.557L17.3305 31.557L17.3331 31.5601C17.6082 31.8904 17.783 32.2925 17.8367 32.719C17.8905 33.1455 17.8209 33.5785 17.6363 33.9666C17.4516 34.3548 17.1597 34.682 16.7949 34.9095C16.4302 35.1369 16.0079 35.2551 15.5781 35.2501Z" fill="#747436" stroke="#F8F8F8" stroke-width="0.5"/>
</svg>
