<svg width="32" height="32" viewBox="0 0 32 32" fill="none" xmlns="http://www.w3.org/2000/svg">
<path d="M3.79502 1.20275L3.85412 1.25982L15.8232 13.2309L15.9999 13.4077L16.1767 13.231L28.2064 1.20127C28.552 0.868248 29.0145 0.684009 29.4944 0.68818C29.9751 0.692357 30.435 0.885167 30.7749 1.22508C31.1148 1.565 31.3076 2.02482 31.3118 2.50551C31.3159 2.98552 31.1317 3.44798 30.7986 3.79359L18.769 15.8232L18.5922 16L18.769 16.1768L30.7987 28.2065C31.1317 28.5521 31.3159 29.0145 31.3118 29.4945C31.3076 29.9752 31.1148 30.435 30.7749 30.7749C30.435 31.1149 29.9751 31.3077 29.4944 31.3118C29.0145 31.316 28.552 31.1318 28.2064 30.7987L16.1767 18.7691L16 18.5923L15.8232 18.7691L3.78985 30.8003L3.78983 30.8003L3.78679 30.8034C3.61767 30.9785 3.41538 31.1182 3.1917 31.2143C2.96803 31.3104 2.72746 31.3609 2.48403 31.363C2.2406 31.3652 1.99919 31.3188 1.77388 31.2266C1.54857 31.1344 1.34387 30.9983 1.17174 30.8261C0.9996 30.654 0.863469 30.4493 0.771287 30.224C0.679105 29.9987 0.63272 29.7573 0.634835 29.5138C0.63695 29.2704 0.687524 29.0298 0.783607 28.8062C0.879691 28.5825 1.01936 28.3802 1.19446 28.2111L1.19449 28.2111L1.19754 28.2081L13.2309 16.1768L13.4077 16L13.2309 15.8232L1.20123 3.79357C0.868193 3.44796 0.683947 2.98551 0.688118 2.50551C0.692296 2.02482 0.885106 1.565 1.22502 1.22508C1.56494 0.885167 2.02476 0.692357 2.50545 0.68818C2.98615 0.684003 3.44925 0.868792 3.79502 1.20275Z" fill="#747436" stroke="white" stroke-width="0.5"/>
</svg>
