<svg width="0" height="0" class="hidden">
  <symbol viewBox="0 0 36 49" fill="none" xmlns="http://www.w3.org/2000/svg" id="cart_icon">
    <path fill-rule="evenodd" clip-rule="evenodd" d="M33 14.625H3V42.75c0 .829.263 1.624.732 2.21.47.586 1.105.915 1.768.915h25c.663 0 1.299-.33 1.768-.915.469-.586.732-1.381.732-2.21V14.625zM.5 11.5v31.25c0 1.658.527 3.247 1.464 4.42C2.902 48.341 4.174 49 5.5 49h25c1.326 0 2.598-.658 3.535-1.83.938-1.173 1.465-2.762 1.465-4.42V11.5H.5z"
      fill="#747436"></path>
    <path d="M18 3.688c-1.658 0-3.247.823-4.42 2.288-1.171 1.465-1.83 3.452-1.83 5.524h-2.5c0-2.9.922-5.683 2.563-7.734C13.453 1.715 15.679.562 18 .562c2.32 0 4.546 1.153 6.187 3.204S26.75 8.599 26.75 11.5h-2.5c0-2.072-.659-4.06-1.83-5.524C21.246 4.51 19.657 3.688 18 3.688z"
      fill="#747436"></path>
    <path fill-rule="evenodd" clip-rule="evenodd" d="M25.135 22.894c.116.145.209.317.272.507a1.908 1.908 0 0 1 0 1.198c-.063.19-.155.362-.272.507l-7.5 9.375a1.273 1.273 0 0 1-.406.34c-.152.079-.314.12-.479.12-.164 0-.327-.041-.479-.12a1.275 1.275 0 0 1-.406-.34l-3.75-4.687a1.782 1.782 0 0 1-.367-1.107c0-.414.132-.812.367-1.106.235-.293.553-.458.885-.458.332 0 .65.165.885.458l2.865 3.585 6.615-8.272c.116-.146.254-.261.406-.34.152-.079.315-.12.48-.12.163 0 .326.041.478.12.152.079.29.194.406.34z"
      fill="#747436"></path>
  </symbol>
  <symbol viewBox="0 0 18 26" fill="none" xmlns="http://www.w3.org/2000/svg" id="location">
    <path d="M9 .5A8.744 8.744 0 0 0 .25 9.25C.25 15.813 9 25.5 9 25.5s8.75-9.688 8.75-16.25A8.744 8.744 0 0 0 9 .5zm0 11.875a3.125 3.125 0 1 1 0-6.25 3.125 3.125 0 0 1 0 6.25z" fill="#747436"></path>
  </symbol>
</svg>