<svg width="0" height="0" class="hidden">
  <symbol viewBox="0 0 36 49" fill="none" xmlns="http://www.w3.org/2000/svg" id="cart_icon">
    <path fill-rule="evenodd" clip-rule="evenodd" d="M33 14.625H3V42.75c0 .829.263 1.624.732 2.21.47.586 1.105.915 1.768.915h25c.663 0 1.299-.33 1.768-.915.469-.586.732-1.381.732-2.21V14.625zM.5 11.5v31.25c0 1.658.527 3.247 1.464 4.42C2.902 48.341 4.174 49 5.5 49h25c1.326 0 2.598-.658 3.535-1.83.938-1.173 1.465-2.762 1.465-4.42V11.5H.5z"
      fill="#747436"></path>
    <path d="M18 3.688c-1.658 0-3.247.823-4.42 2.288-1.171 1.465-1.83 3.452-1.83 5.524h-2.5c0-2.9.922-5.683 2.563-7.734C13.453 1.715 15.679.562 18 .562c2.32 0 4.546 1.153 6.187 3.204S26.75 8.599 26.75 11.5h-2.5c0-2.072-.659-4.06-1.83-5.524C21.246 4.51 19.657 3.688 18 3.688z"
      fill="#747436"></path>
    <path fill-rule="evenodd" clip-rule="evenodd" d="M25.135 22.894c.116.145.209.317.272.507a1.908 1.908 0 0 1 0 1.198c-.063.19-.155.362-.272.507l-7.5 9.375a1.273 1.273 0 0 1-.406.34c-.152.079-.314.12-.479.12-.164 0-.327-.041-.479-.12a1.275 1.275 0 0 1-.406-.34l-3.75-4.687a1.782 1.782 0 0 1-.367-1.107c0-.414.132-.812.367-1.106.235-.293.553-.458.885-.458.332 0 .65.165.885.458l2.865 3.585 6.615-8.272c.116-.146.254-.261.406-.34.152-.079.315-.12.48-.12.163 0 .326.041.478.12.152.079.29.194.406.34z"
      fill="#747436"></path>
  </symbol>
  <symbol viewBox="0 0 18 26" fill="currentColor" xmlns="http://www.w3.org/2000/svg" id="location">
    <path d="M9 .5A8.744 8.744 0 0 0 .25 9.25C.25 15.813 9 25.5 9 25.5s8.75-9.688 8.75-16.25A8.744 8.744 0 0 0 9 .5zm0 11.875a3.125 3.125 0 1 1 0-6.25 3.125 3.125 0 0 1 0 6.25z" fill="#747436"></path>
  </symbol>
   <symbol viewBox="0 0 40 40" fill="none" xmlns="http://www.w3.org/2000/svg" id="instagram">
    <path d="M26 20a6 6 0 1 1-12 0c0-.342.036-.676.098-1H12v7.994c0 .556.45 1.006 1.006 1.006h13.99A1.006 1.006 0 0 0 28 26.994V19h-2.098c.062.324.098.658.098 1zm-6 4a4 4 0 1 0-.002-8A4 4 0 0 0 20 24zm4.8-8.2h2.398a.602.602 0 0 0 .602-.6v-2.398a.602.602 0 0 0-.602-.602H24.8a.602.602 0 0 0-.602.602V15.2c.002.33.272.6.602.6zM20 .8a19.2 19.2 0 1 0 0 38.4A19.2 19.2 0 0 0 20 .8zm10 26.978C30 29 29 30 27.778 30H12.222C11 30 10 29 10 27.778V12.222C10 11 11 10 12.222 10h15.556C29 10 30 11 30 12.222v15.556z"
      fill="#C4CCA8"></path>
  </symbol>
  <symbol viewBox="0 0 45 45" fill="none" xmlns="http://www.w3.org/2000/svg" id="ok">
    <path d="M21.619 26.242c-1.444-.151-2.743-.51-3.857-1.387-.139-.109-.281-.214-.407-.338-.488-.468-.538-1.01-.15-1.565.328-.476.881-.604 1.459-.332.111.055.218.119.318.191 2.076 1.436 4.928 1.476 7.013.064.2-.164.432-.285.68-.356a1.068 1.068 0 0 1 1.229.495c.305.5.3.988-.075 1.376a5.659 5.659 0 0 1-2.038 1.327c-.728.285-1.527.428-2.316.524.12.13.176.195.251.27 1.07 1.083 2.147 2.163 3.216 3.25.364.372.44.831.24 1.263-.22.468-.71.78-1.19.746a1.157 1.157 0 0 1-.755-.388c-.808-.82-1.63-1.624-2.424-2.458-.23-.244-.343-.197-.546.013-.813.844-1.64 1.674-2.473 2.501-.373.37-.817.437-1.25.225a1.275 1.275 0 0 1-.732-1.174 1.18 1.18 0 0 1 .394-.787l3.176-3.205c.07-.07.135-.146.237-.255z"
      fill="#C4CCA8"></path>
    <path d="M22.478 22.5a4.693 4.693 0 0 1-4.652-4.699 4.698 4.698 0 0 1 4.708-4.676 4.693 4.693 0 0 1 4.667 4.747c-.013 2.562-2.132 4.637-4.723 4.628zm2.332-4.691a2.285 2.285 0 0 0-2.295-2.29 2.288 2.288 0 0 0-2.299 2.316 2.286 2.286 0 0 0 2.312 2.273 2.278 2.278 0 0 0 2.282-2.3z"
      fill="#C4CCA8"></path>
    <path d="M22.5 37.5a15 15 0 1 0 0-30 15 15 0 0 0 0 30zm0 3.75c-10.356 0-18.75-8.394-18.75-18.75S12.144 3.75 22.5 3.75s18.75 8.394 18.75 18.75-8.394 18.75-18.75 18.75z" fill="#C4CCA8"></path>
  </symbol>
  <symbol viewBox="0 0 40 40" fill="none" xmlns="http://www.w3.org/2000/svg" id="twitter">
    <path d="M20 .8C9.396.8.8 9.396.8 20S9.396 39.2 20 39.2 39.2 30.604 39.2 20 30.604.8 20 .8zm7.81 15.728c.008.164.01.328.01.488 0 5-3.802 10.762-10.758 10.762a10.67 10.67 0 0 1-5.796-1.7c.294.036.596.05.902.05a7.574 7.574 0 0 0 4.696-1.618 3.79 3.79 0 0 1-3.532-2.624 3.8 3.8 0 0 0 1.706-.066 3.784 3.784 0 0 1-3.034-3.708v-.046c.51.282 1.094.454 1.714.474a3.78 3.78 0 0 1-1.17-5.052 10.752 10.752 0 0 0 7.794 3.954 3.782 3.782 0 0 1 6.444-3.45 7.593 7.593 0 0 0 2.4-.918 3.8 3.8 0 0 1-1.662 2.094 7.597 7.597 0 0 0 2.172-.598 7.666 7.666 0 0 1-1.886 1.958z"
      fill="#C4CCA8"></path>
  </symbol>
  <symbol viewBox="0 0 40 40" fill="none" xmlns="http://www.w3.org/2000/svg" id="vk">
    <path d="M20 .8C9.396.8.8 9.396.8 20S9.396 39.2 20 39.2 39.2 30.604 39.2 20 30.604.8 20 .8zm7.384 21.662s1.698 1.676 2.116 2.454c.012.016.018.032.022.04.17.286.21.508.126.674-.14.276-.62.412-.784.424h-3c-.208 0-.644-.054-1.172-.418-.406-.284-.806-.75-1.196-1.204-.582-.676-1.086-1.26-1.594-1.26a.61.61 0 0 0-.19.03c-.384.124-.876.672-.876 2.132 0 .456-.36.718-.614.718h-1.374c-.468 0-2.906-.164-5.066-2.442-2.644-2.79-5.024-8.386-5.044-8.438-.15-.362.16-.556.498-.556h3.03c.404 0 .536.246.628.464.108.254.504 1.264 1.154 2.4 1.054 1.852 1.7 2.604 2.218 2.604a.599.599 0 0 0 .278-.072c.676-.376.55-2.786.52-3.286 0-.094-.002-1.078-.348-1.55-.248-.342-.67-.472-.926-.52a1.1 1.1 0 0 1 .398-.338c.464-.232 1.3-.266 2.13-.266h.462c.9.012 1.132.07 1.458.152.66.158.674.584.616 2.042-.018.414-.036.882-.036 1.434 0 .12-.006.248-.006.384-.02.742-.044 1.584.48 1.93a.432.432 0 0 0 .228.066c.182 0 .73 0 2.214-2.546.457-.82.855-1.671 1.19-2.548.03-.052.118-.212.222-.274a.533.533 0 0 1 .248-.058h3.562c.388 0 .654.058.704.208.088.238-.016.964-1.642 3.166l-.726.958c-1.474 1.932-1.474 2.03.092 3.496z"
      fill="#C4CCA8"></path>
  </symbol>
  <symbol viewBox="0 0 40 40" fill="none" xmlns="http://www.w3.org/2000/svg" id="call">
    <path d="M20 0C8.954 0 0 8.954 0 20s8.954 20 20 20 20-8.954 20-20S31.046 0 20 0zm-7.188 7.944c.413-.024.785.222 1.067.66l2.735 5.185c.288.614.124 1.272-.305 1.712l-1.253 1.252a.613.613 0 0 0-.13.356c.481 1.86 1.938 3.574 3.223 4.754 1.286 1.18 2.667 2.776 4.46 3.154.222.062.494.084.653-.063l1.455-1.482c.502-.381 1.229-.566 1.765-.254h.024l4.934 2.912c.725.454.8 1.332.281 1.866l-3.398 3.371c-.502.515-1.169.688-1.817.689-2.864-.086-5.572-1.492-7.795-2.937-3.65-2.655-6.997-5.948-9.1-9.927-.805-1.668-1.752-3.797-1.662-5.66.008-.7.198-1.386.691-1.838l3.399-3.398c.264-.225.526-.337.774-.352z"
      fill="#C4CCA8"></path>
  </symbol>
  <symbol viewBox="0 0 40 40" fill="none" xmlns="http://www.w3.org/2000/svg" id="facebook">
    <path d="M20 .8C9.396.8.8 9.396.8 20S9.396 39.2 20 39.2 39.2 30.604 39.2 20 30.604.8 20 .8zm4.548 13.268h-2.886c-.342 0-.722.45-.722 1.048V17.2h3.61l-.546 2.972H20.94v8.922h-3.406v-8.922h-3.09V17.2h3.09v-1.748c0-2.508 1.74-4.546 4.128-4.546h2.886v3.162z"
      fill="#C4CCA8"></path>
  </symbol>
</svg>